<!--?xml version="1.0" standalone="no"?-->
              <svg id="sw-js-blob-svg" viewBox="0 0 100 100" xmlns="http://www.w3.org/2000/svg" version="1.1">
                    <defs> 
                        <linearGradient id="sw-gradient" x1="0" x2="1" y1="1" y2="0">
                            <stop id="stop1" stop-color="rgba(248, 117, 55, 1)" offset="0%"></stop>
                            <stop id="stop2" stop-color="rgba(251, 168, 31, 1)" offset="100%"></stop>
                        </linearGradient>
                    </defs>
                <path fill="url(#sw-gradient)" d="M19.3,-31.7C25.8,-29.7,32.5,-26.1,35,-20.6C37.5,-15.1,35.8,-7.5,34.7,-0.6C33.7,6.3,33.3,12.7,31.2,18.9C29.2,25.1,25.4,31.2,19.9,35.5C14.4,39.7,7.2,42,-0.3,42.4C-7.7,42.9,-15.4,41.5,-22.5,38.1C-29.5,34.8,-35.9,29.6,-38.9,23C-41.9,16.3,-41.5,8.1,-40.7,0.5C-39.9,-7.2,-38.7,-14.4,-34.1,-18.3C-29.4,-22.2,-21.4,-22.7,-15.2,-24.9C-8.9,-27,-4.5,-30.9,1,-32.5C6.4,-34.2,12.8,-33.7,19.3,-31.7Z" width="100%" height="100%" transform="translate(50 50)" stroke-width="0" style="transition: all 0.3s ease 0s;"></path>
              </svg>